<svg id="Layer_1" enable-background="new 0 0 511.969 511.969" height="512" viewBox="0 0 511.969 511.969" width="512" xmlns="http://www.w3.org/2000/svg"><g><path d="m50.516 364.021-23.732 23.733-26.784 124.214 124.215-26.782 23.733-23.732z" fill="#fff5f5"/><path d="m124.215 485.186 23.733-23.732-48.717-48.717-99.231 99.231z" fill="#e1ebf0"/><path d="m498.044 13.925c-8.98-8.979-20.919-13.925-33.617-13.925s-24.638 4.945-33.617 13.925l-46.651 46.65 67.235 67.236 46.651-46.652c8.979-8.979 13.925-20.918 13.925-33.617-.001-12.698-4.946-24.637-13.926-33.617z" fill="#6e76e5"/><path d="m498.043 13.925-80.268 80.268 33.618 33.619 46.651-46.652c8.979-8.979 13.925-20.918 13.925-33.617s-4.945-24.638-13.926-33.618c.001 0 .001 0 0 0z" fill="#0051bf"/><path d="m357.827 37.704h95.087v137.789h-95.087z" fill="#78b9eb" transform="matrix(.707 -.707 .707 .707 43.353 317.861)"/><path d="m382.185 96.509h95.087v68.895h-95.087z" fill="#6e76e5" transform="matrix(.707 -.707 .707 .707 33.266 342.223)"/><path d="m11.821 213.843h434.822v137.789h-434.822z" fill="#6e76e5" transform="matrix(.707 -.707 .707 .707 -132.785 244.903)"/><path d="m36.179 272.647h434.822v68.895h-434.822z" fill="#0051bf" transform="matrix(.707 -.707 .707 .707 -142.874 269.261)"/><path d="m420.469 188.932 21.213-21.213-106.807-106.805c-20.207-20.207-53.087-20.207-73.294 0l-106.65 106.65 21.213 21.213 106.65-106.65c8.511-8.511 22.358-8.511 30.868 0z" fill="#fff5f5"/><path d="m391.717 119.52h30v68.895h-30z" fill="#e1ebf0" transform="matrix(.707 -.707 .707 .707 10.254 332.69)"/></g></svg>